<!DOCTYPE svg PUBLIC "-//W3C//DTD SVG 1.1 Basic//EN" "http://www.w3.org/Graphics/SVG/1.1/DTD/svg11-basic.dtd">
<?xml version="1.0" encoding="utf-8"?>
<!--
	icon.svg, part of MailPolicyExplainer.
	MailPolicyExplainer Copyright (C) 2018, 2020, 2023 Colin Cogle.

	This program is free software: you can redistribute it and/or modify
	it under the terms of the GNU Affero General Public License as
	published by the Free Software Foundation, either version 3 of the
	License, or (at your option) any later version.

	This program is distributed in the hope that it will be useful,
	but WITHOUT ANY WARRANTY; without even the implied warranty of
	MERCHANTABILITY or FITNESS FOR A PARTICULAR PURPOSE.  See the
	GNU Affero General Public License for more details.

	You should have received a copy of the GNU Affero General Public License
	along with this program.  If not, see <https://www.gnu.org/licenses/>.
-->
<!-- Uploaded to: SVG Repo, www.svgrepo.com, Generator: SVG Repo Mixer Tools -->
<!-- This has been modified by Colin Cogle to include dark mode support. -->
<svg xmlns="http://www.w3.org/2000/svg" version="1.1" baseProfile="basic" viewBox="0 0 24 24">
	<style type="text/css">
		path {
			stroke: #000;
		}
		@media (prefers-color-scheme: dark) {
			path {
				stroke: #fff;
			}
		}
	</style>
	<path d="M19 18V21M19 15H19.01M15 19H6.2C5.0799 19 4.51984 19 4.09202 18.782C3.71569 18.5903 3.40973 18.2843 3.21799 17.908C3 17.4802 3 16.9201 3 15.8V8.2C3 7.0799 3 6.51984 3.21799 6.09202C3.40973 5.71569 3.71569 5.40973 4.09202 5.21799C4.51984 5 5.0799 5 6.2 5H17.8C18.9201 5 19.4802 5 19.908 5.21799C20.2843 5.40973 20.5903 5.71569 20.782 6.09202C21 6.51984 21 7.0799 21 8.2V11.5M20.6067 8.26229L15.5499 11.6335C14.2669 12.4888 13.6254 12.9165 12.932 13.0827C12.3192 13.2295 11.6804 13.2295 11.0677 13.0827C10.3743 12.9165 9.73279 12.4888 8.44975 11.6335L3.14746 8.09863" fill="none" stroke-width="2" stroke-linecap="round" stroke-linejoin="round"/>
</svg>